<?xml version="1.0" encoding="iso-8859-1"?>
<!-- Uploaded to: SVG Repo, www.svgrepo.com, Generator: SVG Repo Mixer Tools -->
<svg fill="#000000" height="800px" width="800px" version="1.1" id="Layer_1" xmlns="http://www.w3.org/2000/svg" xmlns:xlink="http://www.w3.org/1999/xlink" 
	 viewBox="0 0 512 512" xml:space="preserve">
<g>
	<g>
		<path d="M422.957,400.696h-33.391c-22.576,0-41.484-15.107-47.721-35.673c36.862-8.656,64.416-41.731,64.416-81.197v-51.42
			c56.54-8.145,100.174-56.779,100.174-115.536c0-9.223-7.473-16.696-16.696-16.696c-33.328,0-63.366,14.097-84.677,36.555
			c-6.497-39.603-40.864-69.946-82.28-69.946H256c-46.032,0-83.478,37.446-83.478,83.478v133.565
			c0,39.465,27.555,72.54,64.416,81.197c-6.236,20.566-25.145,35.673-47.721,35.673h-33.391c-5.882,0-11.448,1.205-16.696,3.076
			v-36.468h16.696c9.223,0,16.696-7.473,16.696-16.696c0-9.223-7.473-16.696-16.696-16.696H139.13V16.696
			C139.13,7.473,131.657,0,122.435,0C76.403,0,38.957,37.446,38.957,83.478v250.435H22.261c-9.223,0-16.696,7.473-16.696,16.696
			c0,9.223,7.473,16.696,16.696,16.696h16.696v128c0,9.223,7.473,16.696,16.696,16.696c234.637,0,166.49,0,400.696,0
			c9.223,0,16.696-7.473,16.696-16.696v-44.522C473.043,423.164,450.576,400.696,422.957,400.696z M105.739,450.783v27.826H72.348
			V367.304h33.391V450.783z M205.913,233.739v-33.391H372.87v33.391H205.913z M289.391,427.174l-30.606-30.606
			c5.805-8.756,10.063-18.625,12.231-29.264h36.75c2.168,10.64,6.427,20.507,12.231,29.264L289.391,427.174z"/>
	</g>
</g>
</svg>